<svg width="45" height="47" viewBox="0 0 45 47" fill="none" xmlns="http://www.w3.org/2000/svg">
<path fill-rule="evenodd" clip-rule="evenodd" d="M26.25 3.91667C27.638 3.91667 28.8498 4.70424 29.4982 5.87486L33.75 5.875C35.8211 5.875 37.5 7.62855 37.5 9.79167V39.1667C37.5 41.3298 35.8211 43.0833 33.75 43.0833H11.25C9.17893 43.0833 7.5 41.3298 7.5 39.1667V9.79167C7.5 7.62855 9.17893 5.875 11.25 5.875L15.5018 5.87486C16.1502 4.70424 17.362 3.91667 18.75 3.91667H26.25ZM15 9.30208H10.7812V39.6562H34.2188V9.30208H30V9.79167C30 11.9548 28.3211 13.7083 26.25 13.7083H18.75C16.6789 13.7083 15 11.9548 15 9.79167V9.30208ZM19.9385 32.0851L18.2812 30.3542L15.7349 33.0115L14.3135 31.5254L12.6562 33.2563L14.5766 35.262L14.7446 35.4154C15.3877 35.9265 16.3095 35.8754 16.8968 35.262L19.9385 32.0851ZM31.7661 31.7092V34.6467H21.9224V31.7092H31.7661ZM19.9385 25.2309L18.2812 23.5L15.7349 26.1573L14.3135 24.6712L12.6562 26.4021L14.5766 28.4078L14.7446 28.5612C15.3877 29.0724 16.3095 29.0213 16.8968 28.4078L19.9385 25.2309ZM31.7661 24.8551V27.7926H21.9224V24.8551H31.7661ZM19.9385 18.3768L18.2812 16.6458L15.7349 19.3032L14.3135 17.817L12.6562 19.548L14.5766 21.5537L14.7446 21.707C15.3877 22.2182 16.3095 22.1671 16.8968 21.5537L19.9385 18.3768ZM31.7661 18.0009V20.9384H21.9224V18.0009H31.7661ZM18.2812 7.34375H26.7188V10.2813H18.2812V7.34375Z" fill="black"/>
<mask id="mask0_9_4015" style="mask-type:luminance" maskUnits="userSpaceOnUse" x="7" y="3" width="31" height="41">
<path fill-rule="evenodd" clip-rule="evenodd" d="M26.25 3.91667C27.638 3.91667 28.8498 4.70424 29.4982 5.87486L33.75 5.875C35.8211 5.875 37.5 7.62855 37.5 9.79167V39.1667C37.5 41.3298 35.8211 43.0833 33.75 43.0833H11.25C9.17893 43.0833 7.5 41.3298 7.5 39.1667V9.79167C7.5 7.62855 9.17893 5.875 11.25 5.875L15.5018 5.87486C16.1502 4.70424 17.362 3.91667 18.75 3.91667H26.25ZM15 9.30208H10.7812V39.6562H34.2188V9.30208H30V9.79167C30 11.9548 28.3211 13.7083 26.25 13.7083H18.75C16.6789 13.7083 15 11.9548 15 9.79167V9.30208ZM19.9385 32.0851L18.2812 30.3542L15.7349 33.0115L14.3135 31.5254L12.6562 33.2563L14.5766 35.262L14.7446 35.4154C15.3877 35.9265 16.3095 35.8754 16.8968 35.262L19.9385 32.0851ZM31.7661 31.7092V34.6467H21.9224V31.7092H31.7661ZM19.9385 25.2309L18.2812 23.5L15.7349 26.1573L14.3135 24.6712L12.6562 26.4021L14.5766 28.4078L14.7446 28.5612C15.3877 29.0724 16.3095 29.0213 16.8968 28.4078L19.9385 25.2309ZM31.7661 24.8551V27.7926H21.9224V24.8551H31.7661ZM19.9385 18.3768L18.2812 16.6458L15.7349 19.3032L14.3135 17.817L12.6562 19.548L14.5766 21.5537L14.7446 21.707C15.3877 22.2182 16.3095 22.1671 16.8968 21.5537L19.9385 18.3768ZM31.7661 18.0009V20.9384H21.9224V18.0009H31.7661ZM18.2812 7.34375H26.7188V10.2813H18.2812V7.34375Z" fill="white"/>
</mask>
<g mask="url(#mask0_9_4015)">
<rect width="45" height="47" fill="#292A2C"/>
</g>
</svg>
